<?xml version="1.0" standalone="no"?>
<!DOCTYPE svg PUBLIC "-//W3C//DTD SVG 20010904//EN"
 "http://www.w3.org/TR/2001/REC-SVG-20010904/DTD/svg10.dtd">
<svg version="1.0" xmlns="http://www.w3.org/2000/svg"
 viewBox="0 0 2600.000000 2600.000000"
 preserveAspectRatio="xMidYMid meet">
<metadata>
Created by potrace 1.15, written by Peter Selinger 2001-2017
</metadata>
<g transform="translate(0.000000,2600.000000) scale(0.100000,-0.100000)" stroke="none">
<path d="M13875 18795 c-313 -45 -601 -90 -640 -100 -128 -32 -243 -103 -332
-206 -21 -25 -303 -450 -628 -945 l-589 -900 -518 -72 c-361 -50 -542 -80
-598 -98 -147 -46 -288 -162 -362 -298 -18 -34 -139 -375 -273 -775 l-240
-714 -892 -302 c-491 -167 -917 -314 -947 -328 -119 -55 -228 -159 -290 -277
-28 -53 -2129 -6067 -2192 -6275 -29 -94 -25 -257 9 -360 34 -102 83 -185 155
-258 74 -76 144 -122 245 -160 l82 -32 6420 0 6420 0 73 27 c202 73 352 229
414 428 34 111 33 285 -4 390 -21 59 -648 2590 -1515 6110 -56 227 -85 325
-113 385 -65 137 -192 256 -333 313 -33 13 -285 78 -560 143 -276 66 -505 123
-509 127 -4 4 -235 857 -513 1896 -278 1038 -517 1917 -530 1952 -90 240 -349
416 -605 413 -36 -1 -321 -38 -635 -84z m-629 -3689 c-96 -978 -178 -1782
-183 -1786 -4 -4 -485 -324 -1068 -710 -583 -386 -1063 -706 -1068 -709 -6 -6
-337 -3821 -337 -3888 l0 -23 -1836 0 c-1745 0 -1836 1 -1829 18 3 9 357 1025
786 2257 429 1232 782 2241 783 2243 5 4 -45 135 716 -1883 376 -995 686
-1813 689 -1817 4 -4 84 1033 179 2305 95 1272 175 2330 178 2352 l6 41 116
39 c231 78 368 206 449 420 17 44 122 355 233 690 112 336 203 611 204 612 1
1 213 31 472 67 276 39 497 75 535 87 90 29 187 89 256 158 44 43 170 228 473
692 228 347 415 628 417 623 1 -5 -76 -809 -171 -1788z m2949 -1842 c132 -31
241 -58 243 -59 2 -2 292 -1174 645 -2606 l643 -2604 -475 -3 c-261 -1 -476
-1 -478 1 -2 2 -210 600 -464 1328 -253 728 -466 1333 -474 1344 -7 11 -268
288 -579 615 -311 327 -566 597 -566 600 0 4 277 331 616 728 451 529 620 721
633 718 9 -3 124 -31 256 -62z m-1862 -4450 c1 0 334 -185 740 -410 l737 -409
-1240 -3 c-682 -1 -1798 -1 -2480 0 l-1240 3 929 783 928 784 329 386 c181
212 423 496 538 631 l209 244 274 -1004 c151 -552 275 -1004 276 -1005z"/>
</g>
</svg>
